<svg id="Ebene_1" data-name="Ebene 1" xmlns="http://www.w3.org/2000/svg" width="101.47191mm" height="100.86136mm" viewBox="0 0 287.6369 285.90622">
  <defs>
    <style>
      .cls-1 {
        fill: #fff;
      }
    </style>
  </defs>
  <title>Ticket_Header_Icon_weiss</title>
  <g>
    <path class="cls-1" d="M275.151,93.728c-1.62629-2.79636-3.23138-5.605-4.852-8.40465q-4.16505-7.19511-8.33824-14.38553c-2.79486-4.84207-5.56468-9.69852-8.35944-14.54059-2.58034-4.47054-5.18781-8.92542-7.76764-13.39625-2.98449-5.17214-5.94276-10.35944-8.92919-15.53045-2.91459-5.04663-5.86722-10.0714-8.75608-15.13264a0.90461,0.90461,0,0,0-1.33846-.48309,23.81026,23.81026,0,0,1-7.209,1.218,46.68636,46.68636,0,0,1-5.21015-.275,25.90581,25.90581,0,0,1-8.31356-2.39808,29.42188,29.42188,0,0,1-9.711-7.1928q-1.68284.97161-3.36568,1.94318Q106.57121,55.05034,20.132,104.95642q-4.03939,2.33217-8.07787,4.66379a29.02516,29.02516,0,0,1,.51359,16.91062A29.47652,29.47652,0,0,1,3.68492,140.951c0.25516,0.467.45211,0.84626,0.66579,1.21577q2.30422,3.98469,4.61326,7.96657,2.51583,4.35728,5.02206,8.72019,2.30207,3.98585,4.6163,7.96474,2.55658,4.41577,5.1084,8.83436,2.28373,3.9558,4.56116,7.91523,2.31553,4.01979,4.63062,8.03983,2.51385,4.35772,5.03272,8.71254,2.3018,3.98705,4.60133,7.97539,2.51709,4.35579,5.03909,8.70873c1.143,1.97712,2.28911,3.95253,3.41844,5.93749a0.62036,0.62036,0,0,0,.85366.34857,25.15626,25.15626,0,0,1,10.39273-1.26366,45.33727,45.33727,0,0,1,5.2089.73865A28.11383,28.11383,0,0,1,81.18719,230.391c0.474,0.47239.90283,0.99012,1.36907,1.505,2.51572-1.45768,4.85763-2.82185,7.20653-4.17393,3.58763-2.06522,7.18409-4.11524,10.76941-6.18452,3.56413-2.05709,7.11511-4.13692,10.67919-6.194,3.58532-2.06928,7.18464-4.11436,10.7689-6.18544,4.13973-2.392,8.2649-4.80926,12.40551-7.19987,3.91463-2.26015,7.8475-4.48874,11.76052-6.75164,4.69491-2.71508,9.37134-5.46209,14.06677-8.17622,4.84027-2.7979,9.69812-5.56538,14.54026-8.36017,4.47054-2.5803,8.92571-5.1873,13.39625-7.76764,4.84214-2.79475,9.69852-5.56476,14.54062-8.35951,4.47058-2.58034,8.926-5.18682,13.39629-7.76768,4.51206-2.605,9.03756-5.18668,13.55084-7.78961q6.36734-3.6723,12.72138-7.3676c2.67528-1.55127,5.34379-3.11432,8.02262-4.6594,2.65789-1.533,5.32819-3.04442,7.987-4.57574,2.70036-1.55522,5.39087-3.12743,8.09259-4.68023a0.55828,0.55828,0,0,0,.30869-0.80207,25.52511,25.52511,0,0,1-1.32111-6.90465,28.06827,28.06827,0,0,1,.543-7.68471,29.50436,29.50436,0,0,1,3.71267-9.44479,26.46825,26.46825,0,0,1,5.25423-6.35258A0.53715,0.53715,0,0,0,275.151,93.728Zm-27.99967,13.42a20.16628,20.16628,0,0,1-5.4633,3.9771c-2.60011,1.491-5.18986,3-7.78588,4.49819q-3.98656,2.30065-7.97652,4.59536-3.98909,2.29812-7.97762,4.59708-3.98661,2.30059-7.97041,4.60605-3.86189,2.232-7.72363,4.46432-3.98508,2.30323-7.97067,4.60554-3.98854,2.29856-7.9818,4.58892-4.41868,2.54818-8.83113,5.10708c-2.65555,1.53794-5.30593,3.08485-7.96459,4.6174s-5.32783,3.04669-7.98659,4.579q-4.32872,2.49485-8.64719,5.00767-3.98376,2.30553-7.97,4.60664-4.35722,2.516-8.71587,5.02957-3.98546,2.30284-7.96836,4.61-3.98843,2.29856-7.98451,4.58379-4.05142,2.33025-8.09794,4.669c-2.55354,1.47749-5.10078,2.96581-7.654,4.44381q-3.98348,2.30581-7.97323,4.60089-3.98876,2.29845-7.98066,4.59148c-2.99445,1.71277-5.97428,3.45293-9.00289,5.10338a9.11376,9.11376,0,0,1-4.67577,1.09516,8.556,8.556,0,0,1-5.046-1.88907,16.47323,16.47323,0,0,1-3.90811-5.13015c-1.57649-2.68777-3.12263-5.3934-4.67609-8.09461-1.52985-2.66012-3.04757-5.3272-4.58-7.98582q-2.49512-4.32861-5.00694-8.64762-2.30592-3.98354-4.60883-7.96891-2.51594-4.35717-5.027-8.71723-2.31756-4.01776-4.6367-8.03459-2.30043-3.98777-4.59829-7.977a20.36292,20.36292,0,0,1-2.7726-5.99266,8.38569,8.38569,0,0,1,1.50228-6.93533,15.00688,15.00688,0,0,1,4.94737-3.91511c2.61835-1.5066,5.2267-3.03058,7.84277-4.54121q3.95553-2.28411,7.91772-4.55677,3.99057-2.29515,7.98147-4.58969,4.41945-2.549,8.83318-5.10807c2.6554-1.538,5.3052-3.08584,7.96378-4.61835s5.32815-3.0464,7.98736-4.57808q3.80367-2.19086,7.59621-4.401c2.63394-1.527,5.264-3.06079,7.90249-4.58,2.65961-1.53146,5.3316-3.04139,7.9904-4.5742,2.65833-1.53248,5.30567-3.084,7.96034-4.62289q6.39029-3.70443,12.78487-7.40157c4.18331-2.41287,8.37862-4.80494,12.56057-7.22011,4.79948-2.77183,9.58564-5.56684,14.38582-8.3375,4.842-2.79475,9.69845-5.56439,14.54048-8.35914,4.47051-2.58027,8.92787-5.18331,13.39534-7.76885,4.65314-2.693,9.29687-5.40266,13.97442-8.05257,1.95878-1.10966,3.65881-1.87127,5.28444-1.78a8.96817,8.96817,0,0,1,8.06645,4.29073c1.548,2.33671,2.89251,4.80911,4.30717,7.23311,1.49876,2.56819,2.97255,5.151,4.46058,7.72546q2.30334,3.98513,4.61228,7.967,2.51583,4.35717,5.02279,8.71946,2.33327,4.04966,4.66892,8.098,2.50034,4.32559,5.00877,8.64653,2.3052,3.98392,4.60459,7.97118c1.29541,2.24649,2.61644,4.47889,3.8689,6.74915a10.04446,10.04446,0,0,1,1.28406,4.70641A8.25464,8.25464,0,0,1,247.15134,107.148Z" transform="translate(-3.68492 -3.20698)"/>
    <path class="cls-1" d="M290.57688,176.87222a23.80921,23.80921,0,0,1-6.26367-3.771,46.68141,46.68141,0,0,1-3.77448-3.602,25.9042,25.9042,0,0,1-4.74664-7.23431,29.42062,29.42062,0,0,1-2.68427-11.78278q-1.90979-.3588-3.81952-0.71753-11.183-2.10086-22.36731-4.20184-2.19177,1.27533-4.38562,2.54706-6.3587,3.68719-12.72137,7.36761c-4.51324,2.60291-9.03876,5.18463-13.55084,7.78961-4.47028,2.58081-8.92566,5.18732-13.39624,7.76764-4.8421,2.7948-9.69849,5.56476-14.54065,8.35956-4.47052,2.58032-8.92572,5.18732-13.39624,7.76764-4.84216,2.79474-9.7,5.56226-14.54028,8.36017-4.69543,2.71411-9.37183,5.46112-14.06677,8.17621-3.913,2.26288-7.84589,4.49146-11.7605,6.75165-4.14062,2.39056-8.26575,4.8078-12.40552,7.19983-3.58423,2.07111-7.18359,4.11615-10.76892,6.18542-3.56409,2.05707-7.11505,4.1369-10.67914,6.194-3.58533,2.06927-7.18182,4.11932-10.76941,6.18457-2.34894,1.35205-4.69086,2.71625-7.20654,4.17389-0.46625-.51483-0.89508-1.03259-1.36908-1.50494A28.114,28.114,0,0,0,67.626,231.257a45.35018,45.35018,0,0,0-5.20886-.73865A25.15662,25.15662,0,0,0,52.02439,231.782a0.62032,0.62032,0,0,1-.85364-0.34857c-1.12933-1.98492-2.27545-3.96033-3.41846-5.93744q-2.518-4.35526-5.03906-8.70874-2.30338-3.98611-4.60132-7.9754-2.51532-4.3569-5.03271-8.71252-2.31812-4.01834-4.63062-8.03986-1.14578-1.98907-2.29218-3.97766-0.8259,4.39407-1.649,8.78839-0.85016,4.52463-1.70282,9.04877-0.92688,4.94458-1.84821,9.89032c-0.42035,2.24469-.83722,4.49017-1.27307,6.73193a0.62034,0.62034,0,0,0,.42078.82043,25.15446,25.15446,0,0,1,8.70923,5.80994,45.337,45.337,0,0,1,3.4715,3.953,28.11361,28.11361,0,0,1,5.45807,14.73395c0.052,0.66718.04022,1.33929,0.05865,2.03369,2.8584,0.53235,5.524,1.0224,8.187,1.52631,4.06738,0.76947,8.13165,1.55627,12.2,2.32117,4.04431,0.76032,8.09344,1.49481,12.1377,2.25519,4.0683,0.76489,8.13159,1.55731,12.20026,2.32007,4.69928,0.8811,9.40387,1.73352,14.10284,2.61633,4.4425,0.83447,8.87836,1.70483,13.32141,2.53625,5.331,0.99756,10.66864,1.9588,15.99933,2.9574,5.49518,1.02936,10.98389,2.09326,16.47845,3.12616,5.07288,0.95367,10.15155,1.87708,15.22443,2.83069,5.49457,1.033,10.98376,2.094,16.47827,3.127,5.073,0.95361,10.15143,1.87756,15.22449,2.83063,5.12048,0.962,10.236,1.95038,15.356,2.91473q7.22351,1.36047,14.45178,2.6947c3.04041,0.56525,6.08331,1.11719,9.12238,1.68951,3.01532,0.56775,6.026,1.16,9.04089,1.72974,3.062,0.57855,6.12762,1.13788,9.18909,1.71918a0.55823,0.55823,0,0,0,.75659-0.40753,25.527,25.527,0,0,1,3.49451-6.09985,28.06891,28.06891,0,0,1,5.41705-5.47766,29.50556,29.50556,0,0,1,8.96863-4.7489,26.46691,26.46691,0,0,1,8.12445-1.39838,0.53719,0.53719,0,0,0,.65814-0.47107c0.58722-3.18115,1.19849-6.35779,1.79205-9.53778,1.01715-5.4483,2.01813-10.89966,3.04211-16.34668,1.03278-5.49457,2.094-10.9837,3.12689-16.47821,0.95361-5.07294,1.87653-10.15161,2.83069-15.22443,1.10394-5.86853,2.23761-11.73145,3.33929-17.6004,1.0752-5.72778,2.1073-11.46368,3.21155-17.18585A0.90461,0.90461,0,0,0,290.57688,176.87222Z" transform="translate(-3.68492 -3.20698)"/>
    <path class="cls-1" d="M202.949,34.08834a6.1308,6.1308,0,0,1,5.81527,3.447c2.08318,3.68629,4.23417,7.3342,6.34935,11.00246,1.87774,3.25649,3.73855,6.52273,5.61952,9.77735,1.86869,3.23342,3.7596,6.454,5.629,9.68708,1.6791,2.904,3.33617,5.82075,5.01377,8.72562q3.67613,6.36538,7.366,12.72283c1.6776,2.9049,3.37021,5.80171,5.003,8.73173a5.68464,5.68464,0,0,1-.83566,6.86472,10.68961,10.68961,0,0,1-2.61924,1.82216c-3.67259,2.15529-7.36328,4.27977-11.05281,6.40607-3.58672,2.06706-7.18419,4.11547-10.76959,6.18481-3.56417,2.05708-7.11519,4.137-10.67936,6.19406-3.5854,2.06935-7.18461,4.11474-10.76908,6.1857-3.78967,2.1895-7.56463,4.40447-11.35437,6.59384-3.0078,1.73763-6.03288,3.44535-9.04176,5.18116-2.8845,1.664-5.75427,3.35367-8.63747,5.02-2.65715,1.53567-5.32609,3.05083-7.98514,4.58321-2.6588,1.53226-5.31052,3.07682-7.9676,4.61208-2.59557,1.49971-5.19648,2.99021-7.79064,4.49235q-7.25683,4.202-14.50991,8.41045c-3.93552,2.27189-7.88792,4.51453-11.82348,6.7863-4.47055,2.58058-8.92568,5.1879-13.39685,7.76739-4.2658,2.461-8.54617,4.89673-12.81546,7.35166q-6.55811,3.77109-13.10485,7.56187a5.88655,5.88655,0,0,1-7.98084-2.06609q-4.10573-7.107-8.19929-14.22107-4.61437-8.00778-9.22723-16.01642-4.59853-7.97607-9.20367-15.94834c-2.58445-4.46831-5.19775-8.92007-7.75906-13.40156a10.34986,10.34986,0,0,1-1.64312-3.75974,5.13213,5.13213,0,0,1,1.40838-4.58891,20.61135,20.61135,0,0,1,3.72842-2.59736c2.67229-1.60168,5.391-3.12592,8.09065-4.682q3.95794-2.28124,7.91575-4.56269,3.86252-2.2295,7.72251-4.46344,4.01839-2.31817,8.0404-4.63005,3.95806-2.28,7.91493-4.56207,4.419-2.55131,8.8349-5.108,3.98358-2.30626,7.96473-4.61669,4.35709-2.51646,8.72057-5.02184c2.65755-1.53443,5.30827-3.08063,7.96649-4.61385,2.6585-1.53337,5.32434-3.05409,7.98372-4.58591q3.80362-2.1909,7.60048-4.3935,3.9832-2.30722,7.96386-4.61882c2.9052-1.67693,5.8188-3.33926,8.72387-5.01638,2.63682-1.52224,5.26339-3.06219,7.90126-4.58257,2.659-1.53255,5.33059-3.04331,7.98892-4.577,2.69949-1.55745,5.38773-3.13437,8.08414-4.69715q6.35946-3.68582,12.72394-7.363,7.6351-4.40423,15.27749-8.79585c1.05085-.60585,2.07929-1.25086,3.13469-1.84846A4.9054,4.9054,0,0,1,202.949,34.08834Zm-55.07177,81.42771c-0.27118-.52259-0.42213-0.8444-0.59962-1.15084q-3.07515-5.30952-6.157-10.61513c-1.95657-3.37475-3.92359-6.74357-5.85142-10.13467a0.57053,0.57053,0,0,0-.95226-0.25816c-2.053,1.20021-4.10635,2.4-6.17264,3.57705a0.49347,0.49347,0,0,0-.21694.804q1.73888,2.99158,3.46967,5.98789,2.50306,4.32312,5.00455,8.64716c1.53222,2.65814,3.05142,5.32378,4.58117,7.98335q2.33015,4.05114,4.67022,8.09658c0.74607,1.29088,1.49943,2.57755,2.26346,3.89012,0.27962-.128.50373-0.20888,0.70645-0.32661,2.0362-1.18269,4.05907-2.3888,6.1093-3.54651,0.52589-.297.345-0.5802,0.1452-0.92417q-2.49075-4.28742-4.98119-8.575c-0.4777-.82506-0.93292-1.66315-1.39844-2.49526a35.54725,35.54725,0,0,1,3.72357,1.76062c3.36868,1.73923,6.74638,3.46115,10.105,5.21958a1.161,1.161,0,0,0,1.26087-.06781c2.07449-1.21089,4.15623-2.40943,6.23049-3.62069,0.57891-.33805,1.14111-0.70473,1.79068-1.10772-2.50249-1.14023-4.85578-2.22819-7.22222-3.28672-2.888-1.29182-5.78949-2.55335-8.67427-3.85218a0.68067,0.68067,0,0,1-.28932-0.55028c0.084-1.0406.2074-2.07847,0.33756-3.11475,0.20993-1.67132.4354-3.34069,0.65447-5.01086,0.22517-1.71676.45963-3.43238,0.67157-5.15078,0.08932-.72424.13132-1.45432,0.21037-2.35974-2.93573,1.69871-5.6516,3.26614-8.35857,4.84878a0.627,0.627,0,0,0-.26594.43654q-0.23847,4.57363-.441,9.14908c-0.06993,1.62341-.09489,3.24873-0.15436,4.87267A5.78724,5.78724,0,0,1,147.87724,115.51606Zm41.13511-19.90113c-0.5261-.89954-1.03027-1.70378-1.478-2.53831a16.784,16.784,0,0,0-4.5756-5.517,9.86967,9.86967,0,0,0-7.86861-2.10939c-4.96493.89621-8.87408,3.4476-11.04456,8.21085a12.11472,12.11472,0,0,0-.95048,7.53235,18.01168,18.01168,0,0,0,6.261,10.6844,11.20571,11.20571,0,0,0,9.71781,2.3378,18.65155,18.65155,0,0,0,5.888-2.45619,21.411,21.411,0,0,0,6.57222-5.74169,0.80961,0.80961,0,0,0,.08253-1.083c-0.49979-.75106-0.89809-1.569-1.35416-2.35-0.43832-.75058-0.89588-1.48993-1.39287-2.3136a15.5637,15.5637,0,0,1-7.43082,6.52717,6.54408,6.54408,0,0,1-4.94214.32176,5.35923,5.35923,0,0,1-2.94128-2.57676ZM88.633,122.32055L62.22753,137.5486l3.50181,6.05729,9.37812-5.39983a1.094,1.094,0,0,1,.23033.20672c0.97991,1.71389,1.94689,3.43522,2.93172,5.14628,1.53076,2.65954,3.07466,5.31151,4.60986,7.9685q2.51719,4.35654,5.02934,8.716c0.90457,1.56588,1.82027,3.12538,2.71662,4.69593,0.18407,0.32253.33227,0.3673,0.67036,0.16712q3.25507-1.92713,6.5421-3.8c0.37172-.212.47691-0.40366,0.25422-0.7866-1.13608-1.95372-2.2545-3.9177-3.38954-5.872q-2.72377-4.68983-5.45958-9.37264-2.58128-4.44224-5.14884-8.89245c-0.48022-.83238-0.93687-1.67836-1.41681-2.54053,1.07383-.61964,2.0613-1.19125,3.05048-1.75988q2.93916-1.68961,5.88014-3.37607c0.39136-.22439.5765-0.45579,0.21834-0.89834a8.51059,8.51059,0,0,1-.63988-1.11134C90.3505,125.25981,89.51115,123.82492,88.633,122.32055ZM190.11959,66.7454c-0.45858.52061-.81445,0.96593-1.21278,1.36933q-2.14841,2.17576-4.32612,4.3224a0.86853,0.86853,0,0,0-.17879,1.20514c0.426,0.7146.85115,1.42979,1.26837,2.14954,0.45972,0.79307.91011,1.59155,1.36735,2.39258l-3.85672,2.24194c0.93466,1.61,1.86386,3.13273,2.70678,4.70186,0.32336,0.602.57962,0.58186,1.09113,0.26126,1.01911-.63875,2.0795-1.21165,3.15687-1.83134,0.97772,1.69,1.89727,3.32362,2.85916,4.93194,1.62143,2.71109,3.14988,5.48917,4.946,8.08064a6.732,6.732,0,0,0,5.83865,3.05152,9.822,9.822,0,0,0,4.66115-1.40816,14.50211,14.50211,0,0,0,4.38595-3.36223,0.79073,0.79073,0,0,0,.041-1.0647c-0.58461-1.00808-1.15259-2.02584-1.73794-3.0335-0.32577-.56081-0.67308-1.10912-1.12074-1.8436-0.62884.68533-1.157,1.23751-1.6582,1.81317a3.12219,3.12219,0,0,1-3.298.50639,5.17924,5.17924,0,0,1-1.98492-2.094c-1.45525-2.48205-2.88383-4.97977-4.31989-7.47307-0.43455-.75449-0.85943-1.51454-1.31417-2.31694,1.61744-.94113,3.13758-1.869,4.70252-2.71379,0.58387-.31519.52934-0.5741,0.2425-1.04906q-1.21691-2.015-2.3578-4.07536c-0.26986-.48994-0.49173-0.57767-0.9909-0.2701-1.3763.848-2.79262,1.63084-4.18451,2.454a0.51968,0.51968,0,0,1-.85761-0.224c-0.37851-.71375-0.78146-1.41486-1.18614-2.11434C191.93367,69.85223,191.05787,68.356,190.11959,66.7454ZM133.251,118.108c-1.05343-1.8184-2.13762-3.55132-3.06919-5.36274a1.281,1.281,0,0,0-1.58414-.699,7.625,7.625,0,0,0-1.7192.45151,22.77213,22.77213,0,0,0-8.23251,5.27962,12.77105,12.77105,0,0,0-3.619,11.60726,16.13059,16.13059,0,0,0,5.69427,9.87969A11.97259,11.97259,0,0,0,130.96,141.88157a18.75717,18.75717,0,0,0,11.28509-6.99455,0.822,0.822,0,0,0,.07909-1.07922c-0.75241-1.26823-1.4673-2.55865-2.21054-3.83241-0.26019-.4459-0.56051-0.8684-0.90809-1.40234a11.59685,11.59685,0,0,1-4.44214,4.76618,7.58087,7.58087,0,0,1-5.27866,1.02829,6.90553,6.90553,0,0,1-4.26872-2.751,9.59128,9.59128,0,0,1-2.187-5.18618,6.80308,6.80308,0,0,1,2.77981-6.09964A10.448,10.448,0,0,1,133.251,118.108Zm-27.96293,7.26076c-0.16752.1088-.28035,0.19053-0.40072,0.259-1.81947,1.03466-3.64245,2.06317-5.45928,3.10245-1.27413.72883-1.27059,0.73517-.54615,2.06714,0.02287,0.04207.05055,0.08149,0.07448,0.123q2.33305,4.04759,4.66589,8.09529,2.28057,3.956,4.56144,7.91175,1.67208,2.90608,3.33266,5.81873a0.49892,0.49892,0,0,0,.80065.237c2.05082-1.20278,4.10189-2.40566,6.17292-3.573a0.576,0.576,0,0,0,.2854-0.94914c-1.04289-1.78644-2.06161-3.587-3.09689-5.37788q-2.49932-4.32361-5.007-8.64238c-1.65261-2.86242-3.29415-5.73124-4.94887-8.59243A3.14147,3.14147,0,0,0,105.28807,125.3688Zm-12.64795-5.1304a5.99033,5.99033,0,0,0,.08513.67589,4.43515,4.43515,0,0,0,6.42608,2.95039c2.784-1.358,3.92923-4.02792,2.49827-6.4847a4.12291,4.12291,0,0,0-3.75795-2.142,5.47807,5.47807,0,0,0-3.42355,1.41171A4.56261,4.56261,0,0,0,92.64012,120.2384Z" transform="translate(-3.68492 -3.20698)"/>
    <path class="cls-1" d="M170.93995,100.10012c-1.0179-2.03172-1.13693-5.23425.59445-7.002,1.5918-1.62525,4.37581-2.37686,6.357-.30848,0.64626,0.67471,1.20818,1.43022,1.86263,2.21335Z" transform="translate(-3.68492 -3.20698)"/>
  </g>
</svg>
