<?xml version="1.0" encoding="utf-8"?>
<!-- Generator: Adobe Illustrator 17.0.0, SVG Export Plug-In . SVG Version: 6.00 Build 0)  -->
<!DOCTYPE svg PUBLIC "-//W3C//DTD SVG 1.1//EN" "http://www.w3.org/Graphics/SVG/1.1/DTD/svg11.dtd">
<svg version="1.1" id="Ebene_1" xmlns="http://www.w3.org/2000/svg" xmlns:xlink="http://www.w3.org/1999/xlink" x="0px" y="0px"
	 width="72.9785px" height="72.9785px" viewBox="0 0 72.9785 72.9785" style="enable-background:new 0 0 72.9785 72.9785;"
	 xml:space="preserve">
<path d="M51.8831,72.9785c-1.111-0.404-2.224-0.906-2.677-2.052c-0.391-0.992-0.571-2.087-0.718-3.153
	c-0.497-3.616-0.939-7.239-1.399-10.859c-0.258-2.022-0.494-4.047-0.783-6.064c-0.037-0.257-0.283-0.595-0.519-0.696
	c-3.401-1.46-5.286-4.27-5.286-7.952c0.001-5.249-0.009-10.497,0.009-15.746c0.012-3.839,2.478-7.016,6.181-7.983
	c1.984-0.518,3.788-0.181,5.398,1.16c0.855,0.711,1.754,1.383,2.694,1.976c1.427,0.9,2.943,0.899,4.379,0.038
	c0.95-0.57,1.905-1.199,2.682-1.977c1.616-1.618,3.471-1.73,5.456-1.058c3.001,1.016,4.859,3.106,5.539,6.219
	c0.03,0.136,0.092,0.265,0.139,0.397v18.53c-0.043,0.081-0.108,0.158-0.126,0.244c-0.592,2.924-2.3,4.937-5.034,6.069
	c-0.51099,0.211-0.642,0.509-0.698,1.001c-0.233,2.071-0.501,4.138-0.761,6.206c-0.45599,3.643-0.931,7.284-1.367,10.929
	c-0.162,1.355-0.262,2.73399-1.416,3.667c-0.555,0.448-1.235,0.741-1.858,1.104H51.8831z"/>
<path d="M28.5072,72.9785c-0.204-0.101-0.409-0.2-0.612-0.304c-1.083-0.552-1.798-1.393-1.955-2.622
	c-0.673-5.266-1.326-10.534-2.015-15.797c-0.034-0.258-0.293-0.59-0.533-0.699c-2.887-1.311-4.398-3.527-4.416-6.699
	c-0.025-4.465-0.02-8.929,0.002-13.394c0.019-3.776,2.745-6.706,6.486-6.99c1.097-0.083,2.113,0.216,3,0.885
	c0.738,0.557,1.454,1.146,2.204,1.686c1.555,1.118,3.131,1.062,4.693,0.007c0.487-0.329,0.955-0.687,1.553-1.12
	c0,0.373,0,0.643,0,0.914c0,4.559-0.031,9.119,0.009,13.678c0.038,4.285,1.911,7.596,5.488,9.952
	c0.201,0.133,0.349,0.347,0.521,0.523c-0.194,0.151-0.365,0.372-0.585,0.441c-0.529,0.166-0.693,0.475-0.757,1.028
	c-0.37,3.202-0.799,6.397-1.207,9.595c-0.207,1.622-0.51,3.239-0.59,4.868c-0.095,1.95699-0.87,3.341-2.734,4.048H28.5072z"/>
<path d="M0,36.9169c0.137-0.37,0.27-0.741,0.412-1.109c0.89-2.304,3.165-3.904,5.54-3.875c0.95,0.012,1.81,0.303,2.56,0.911
	c0.571,0.462,1.149,0.918,1.744,1.348c1.374,0.991,2.769,0.978,4.16,0.03c0.443-0.302,0.874-0.621,1.409-1.003
	c0,1.805,0,3.503,0,5.202c-0.001,2.943-0.05,5.887,0.01,8.829c0.066,3.265,1.408,5.949,3.936,8.03
	c0.182,0.149,0.37,0.291,0.524,0.413c-0.123,0.267-0.299,0.494-0.33,0.739c-0.588,4.652-1.145,9.309-1.742,13.96
	c-0.135,1.052-0.752,1.822-1.711,2.3c-0.184,0.092-0.365,0.191-0.548,0.28699H8.41c-1.142-0.48-2.091-1.16499-2.275-2.489
	c-0.313-2.253-0.574-4.514-0.859-6.772c-0.296-2.351-0.603-4.701-0.884-7.054c-0.06-0.501-0.309-0.727-0.748-0.968
	c-0.738-0.405-1.442-0.91-2.064-1.478c-0.884-0.806-1.241-1.933-1.58-3.047C0,46.4189,0,41.6679,0,36.9169"/>
<path d="M58.1547,0c1.428,0.369,2.817,0.826,3.954,1.82001c2.574,2.251,3.578,5.074,2.69,8.37299
	c-0.886,3.289-3.125,5.326-6.504,5.905c-4.481,0.767-8.529-2.172-9.359-6.685c-0.774-4.216,2.148-8.396,6.482-9.276
	c0.109-0.02299,0.209-0.09,0.314-0.137H58.1547z"/>
<path d="M32.9402,10.9485c3.727-0.059,6.888,3.001,6.952,6.731c0.066,3.838-3.04,7.051-6.847,7.083
	c-3.696,0.031-6.833-3.01-6.978-6.585C25.9072,14.2365,29.1102,10.8955,32.9402,10.9485"/>
<path d="M6.2426,24.2877c0.027-3.462,2.734-6.068,6.275-6.041c3.257,0.025,5.918,2.806,5.882,6.149
	c-0.035,3.358-2.752,6.043-6.096,6.025C8.9186,30.4027,6.2166,27.6677,6.2426,24.2877"/>
</svg>
