<?xml version="1.0" encoding="utf-8"?>
<!-- Generator: Adobe Illustrator 17.0.0, SVG Export Plug-In . SVG Version: 6.00 Build 0)  -->
<!DOCTYPE svg PUBLIC "-//W3C//DTD SVG 1.1//EN" "http://www.w3.org/Graphics/SVG/1.1/DTD/svg11.dtd">
<svg version="1.1" id="Ebene_1" xmlns="http://www.w3.org/2000/svg" xmlns:xlink="http://www.w3.org/1999/xlink" x="0px" y="0px"
	 width="85.7182px" height="71.62491px" viewBox="0 0 85.7182 71.62491" style="enable-background:new 0 0 85.7182 71.62491;"
	 xml:space="preserve">
<style type="text/css">
	.st0{clip-path:url(#SVGID_2_);fill:#D9D9D9;}
</style>
<g>
	<defs>
		<rect id="SVGID_1_" y="-0.00009" width="85.718" height="71.625"/>
	</defs>
	<clipPath id="SVGID_2_">
		<use xlink:href="#SVGID_1_"  style="overflow:visible;"/>
	</clipPath>
	<path class="st0" d="M42.796,71.61381c-9.967,0-19.935-0.008-29.902,0.008c-1.397,0.003-2.48-0.43-3.379-1.568
		c-5.292-6.696-8.423-14.252-9.293-22.753c-2.158-21.094,11.627-40.863,32.101-46.004c23.036-5.785,46.591,8.33701,52.085,31.377
		c3.264,13.684,0.389,26.13-8.173,37.286c-0.898,1.17-1.984,1.668-3.436,1.665C62.798,71.60381,52.797,71.61381,42.796,71.61381
		 M42.806,65.55381c9.399,0,18.798-0.012,28.196,0.022c0.814,0.00301,1.27299-0.27299,1.709-0.91
		c7.161-10.446,8.945-21.727,4.924-33.74c-6.323-18.89-27.018-29.252-45.948-23.165c-23.951,7.702-33.414,36.667-18.638,57.015
		c0.385,0.529,0.754,0.8,1.46,0.798C23.942,65.54581,33.374,65.55481,42.806,65.55381"/>
	<path class="st0" d="M42.6116,58.21821c-1.379-0.069-2.839-0.704-3.945-2.044c-5.314-6.443-10.624-12.889-15.92-19.346
		c-0.395-0.482-0.776-1.029-0.976-1.61c-0.452-1.306,0.113-2.728,1.269-3.506c1.191-0.8,2.544-0.787,3.716,0.163
		c2.621,2.125,5.207,4.293,7.805,6.445c3.963,3.281,7.922,6.566,11.886,9.846c1.929,1.595,2.618,4.006,1.791,6.303
		C47.4236,56.72821,45.3306,58.21321,42.6116,58.21821"/>
	<path class="st0" d="M72.4077,45.26211c-0.59901,0-1.207,0.064-1.79501-0.014c-0.977-0.131-1.56599-0.844-1.571-1.767
		c-0.006-0.91,0.591-1.727,1.542-1.798c1.257-0.094,2.533-0.08,3.79,0.025c0.87,0.073,1.495,0.923,1.503,1.745
		c0.01,0.868-0.643,1.662-1.574,1.781c-0.622,0.079-1.263,0.015-1.895,0.015C72.4077,45.25311,72.4077,45.25811,72.4077,45.26211"/>
	<path class="st0" d="M22.6114,25.47901c-1.399-0.01-4.589-3.094-4.438-4.126c0.087-0.598,0.535-1.349,1.04-1.618
		c0.456-0.242,1.369-0.131,1.802,0.195c0.975,0.734,1.806,1.67,2.637,2.578c0.513,0.56,0.654,1.315,0.194,1.935
		C23.4824,24.93501,22.8884,25.25601,22.6114,25.47901"/>
	<path class="st0" d="M13.0437,45.25911c-0.565,0-1.136,0.054-1.693-0.012c-0.921-0.109-1.595-0.881-1.615-1.75
		c-0.02-0.824,0.576-1.689,1.452-1.769c1.25-0.114,2.523-0.125,3.774-0.021c0.916,0.077,1.553,0.978,1.52,1.823
		c-0.034,0.865-0.713,1.62-1.645,1.723c-0.591,0.065-1.195,0.012-1.793,0.012C13.0437,45.26311,13.0437,45.26111,13.0437,45.25911"
		/>
	<path class="st0" d="M68.2592,21.15581c-0.33501,0.628-0.492,1.119-0.80601,1.471c-0.70599,0.795-1.46999,1.542-2.245,2.271
		c-0.788,0.741-1.789,0.743-2.507,0.06c-0.758-0.72-0.807-1.763-0.052-2.584c0.742-0.808,1.528-1.579,2.326-2.332
		c0.546-0.516,1.251-0.785,1.909-0.339C67.4122,20.06081,67.7882,20.64281,68.2592,21.15581"/>
	<path class="st0" d="M45.0063,12.97221c0,0.501,0.018,1.002-0.004,1.502c-0.042,0.974-0.771,1.721-1.699,1.767
		c-0.89,0.043-1.816-0.684-1.873-1.608c-0.071-1.13-0.07-2.272-0.001-3.402c0.057-0.953,0.904-1.609,1.858-1.579
		c0.964,0.031,1.675,0.729,1.718,1.718c0.024,0.533,0.005,1.068,0.005,1.602C45.0083,12.97221,45.0073,12.97221,45.0063,12.97221"/>
</g>
</svg>
