<?xml version="1.0" encoding="utf-8"?>
<!-- Generator: Adobe Illustrator 17.0.0, SVG Export Plug-In . SVG Version: 6.00 Build 0)  -->
<!DOCTYPE svg PUBLIC "-//W3C//DTD SVG 1.1//EN" "http://www.w3.org/Graphics/SVG/1.1/DTD/svg11.dtd">
<svg version="1.1" id="Ebene_1" xmlns="http://www.w3.org/2000/svg" xmlns:xlink="http://www.w3.org/1999/xlink" x="0px" y="0px"
	 width="38.5105px" height="38.43629px" viewBox="0 0 38.5105 38.43629" style="enable-background:new 0 0 38.5105 38.43629;"
	 xml:space="preserve">
<path d="M29.6365,36.0284c-1.803,1.106-3.719,1.905-5.77,2.384c-0.82-2.052-2.275-3.267-4.485-3.293
	c-2.286-0.026-3.786,1.207-4.628,3.317c-2.05-0.475-3.971-1.26-5.775-2.357c0.92-2.124,0.67-4.046-0.995-5.679
	c-1.4-1.372-3.109-1.576-5.495-0.734c-1.12-1.785-1.932-3.702-2.429-5.751c2.132-0.82,3.372-2.308,3.365-4.577
	c-0.007-2.286-1.275-3.763-3.424-4.565c0.46-2.06,1.256-3.986,2.351-5.805c2.147,0.986,4.141,0.807,5.785-0.933
	c1.551-1.642,1.656-3.562,0.683-5.588c1.798-1.124,3.725-1.924,5.79-2.428c0.862,2.32,2.481,3.572,4.994,3.466
	c1.889-0.08,3.254-1.241,4.216-3.485c2.067,0.48,4.002,1.283,5.809,2.394c-0.97,2.109-0.835,4.083,0.848,5.727
	c1.635,1.598,3.571,1.738,5.649,0.765c1.11,1.803,1.909,3.735,2.385,5.794c-2.107,0.807-3.369,2.242-3.394,4.514
	c-0.026,2.318,1.23,3.794,3.338,4.619c-0.005,0.993-1.607,4.858-2.392,5.76c-2.133-0.916-4.1-0.696-5.708,1.04
	C28.8855,32.19839,28.7725,34.04839,29.6365,36.0284 M19.2455,28.62339c5.171,0.01,9.406-4.187,9.422-9.338
	c0.016-5.236-4.171-9.461-9.387-9.47c-5.206-0.01-9.436,4.193-9.446,9.386C9.8245,24.3904,14.0415,28.6134,19.2455,28.62339"/>
</svg>
