<?xml version="1.0" encoding="utf-8"?>
<!-- Generator: Adobe Illustrator 17.0.0, SVG Export Plug-In . SVG Version: 6.00 Build 0)  -->
<!DOCTYPE svg PUBLIC "-//W3C//DTD SVG 1.1//EN" "http://www.w3.org/Graphics/SVG/1.1/DTD/svg11.dtd">
<svg version="1.1" id="Ebene_1" xmlns="http://www.w3.org/2000/svg" xmlns:xlink="http://www.w3.org/1999/xlink" x="0px" y="0px"
	 width="86.3401px" height="75.5358px" viewBox="0 0 86.3401 75.5358" style="enable-background:new 0 0 86.3401 75.5358;"
	 xml:space="preserve">
<path d="M86.34,4.2037V46.1937c-0.215-0.164-0.452-0.307-0.643-0.497c-1.913-1.902-3.802-3.828-5.739-5.706
	c-0.473-0.459-0.581-0.813-0.309-1.44c1.187-2.741,1.53899-5.611,1.112-8.567c-1.233-8.534-9.08601-14.585-17.731-13.672
	c-9.143,0.966-15.647,9.377-14.28,18.467c1.562,10.382,12.515,16.543,22.212,12.473c0.584-0.245,0.925-0.18,1.375,0.274
	c4.652,4.686,9.331,9.346,14.003,14.014v4.216c-0.10899,0.282-0.224,0.562-0.327,0.846c-0.743,2.048-2.492,3.475-4.499,3.521
	c-6.883,0.154-13.728,0.741-20.544,1.689c-5.217,0.725-10.439,1.42699-15.413,3.292c-1.616,0.606-3.23,0.55099-4.855-0.017
	c-1.293-0.452-2.591-0.916-3.92-1.237c-5.622-1.358-11.335-2.203-17.089-2.703c-4.919-0.428-9.854-0.664-14.78-1.016
	c-2.242-0.161-3.723-1.396-4.562-3.446c-0.126-0.306-0.234-0.619-0.351-0.929c0-20.518,0-41.035,0-61.55199
	C0.068,4.0617,0.151,3.9237,0.201,3.7757c0.789-2.334,2.826-3.84,5.297-3.774c2.804,0.076,5.616,0.146,8.406,0.409
	c4.882,0.46101,9.762,0.982,14.621,1.639c4.772,0.645,9.503,1.552,14.085,3.105c0.356,0.121,0.814,0.058,1.196-0.035
	c3.043-0.73901,6.049-1.68,9.126-2.22401c4.465-0.78999,8.965-1.435,13.476-1.891c4.853-0.49,9.731-0.755,14.605-0.985
	c2.175-0.103,3.775,1.071,4.805,2.98C86.024,3.38371,86.168,3.8017,86.34,4.2037 M37.742,19.9307
	c-8.897-1.957-17.84-3.087-26.902-3.739v5.34c9.06,0.697,18.031,1.809,26.902,3.884V19.9307z M37.749,36.1227
	c-8.893-1.96-17.85-3.091-26.899-3.741v5.34c9.077,0.693,18.037,1.815,26.899,3.879V36.1227z M10.834,53.9077
	c9.077,0.698,18.045,1.813,26.905,3.883v-5.476c-8.871-1.964-17.83-3.09-26.905-3.747V53.9077z"/>
<path d="M64.7735,21.5738c5.87299-0.1,10.99,4.955,10.78699,11.148c-0.193,5.855-5.164,10.589-11.079,10.454
	c-5.62099-0.128-10.71899-4.903-10.54399-11.253C54.0915,26.3048,58.9815,21.5398,64.7735,21.5738"/>
</svg>
