<?xml version="1.0" encoding="utf-8"?>
<!-- Generator: Adobe Illustrator 17.0.0, SVG Export Plug-In . SVG Version: 6.00 Build 0)  -->
<!DOCTYPE svg PUBLIC "-//W3C//DTD SVG 1.1//EN" "http://www.w3.org/Graphics/SVG/1.1/DTD/svg11.dtd">
<svg version="1.1" id="Ebene_1" xmlns="http://www.w3.org/2000/svg" xmlns:xlink="http://www.w3.org/1999/xlink" x="0px" y="0px"
	 width="72.07921px" height="55.50391px" viewBox="0 0 72.07921 55.50391" style="enable-background:new 0 0 72.07921 55.50391;"
	 xml:space="preserve">
<path d="M28.5233-0.00009h15.032c0.234,0.051,0.466,0.113,0.702,0.153c3.661,0.613,6.811,3.726,7.465,7.395
	c0.104,0.587,0.152,1.185,0.229,1.803h0.469c3.327,0,6.654-0.006,9.981,0.005c0.576,0.002,1.156,0.043,1.726,0.122
	c4.474,0.626,7.945,4.603,7.94801,9.115c0.007,9.236,0.003,18.472-0.00101,27.708c0,0.332-0.02499,0.667-0.06799,0.997
	c-0.617,4.742-4.54601,8.205-9.314,8.205c-17.765,0.002-35.531,0.001-53.296-0.002c-0.409,0-0.821-0.025-1.227-0.073
	c-3.841-0.456-7.103-3.409-7.936-7.173c-0.079-0.359-0.156-0.718-0.233-1.076c0-9.816,0-19.632,0-29.448
	c0.025-0.071,0.063-0.139,0.073-0.211c0.327-2.393,1.413-4.375,3.246-5.938c1.794-1.529,3.896-2.23,6.242-2.231
	c3.378-0.001,6.757,0,10.135,0c0.149,0,0.298,0,0.452,0c0.043-0.459,0.055-0.87,0.123-1.271c0.655-3.877,2.866-6.433,6.581-7.686
	C27.3923,0.21191,27.9653,0.12891,28.5233-0.00009 M36.0363,49.00991c9.128,0.005,16.558-7.43,16.559-16.57
	c0-9.148-7.411-16.565-16.553-16.566c-9.144-0.001-16.552,7.408-16.559,16.561C19.4763,41.56891,26.9023,49.00491,36.0363,49.00991"
	/>
<path d="M36.0234,41.81831c-5.21-0.026-9.393-4.248-9.357-9.445c0.035-5.179,4.257-9.344,9.446-9.318
	c5.142,0.025,9.326,4.266,9.3,9.427C45.3874,37.64831,41.1684,41.84431,36.0234,41.81831"/>
</svg>
