<?xml version="1.0" encoding="utf-8"?>
<!-- Generator: Adobe Illustrator 17.0.0, SVG Export Plug-In . SVG Version: 6.00 Build 0)  -->
<!DOCTYPE svg PUBLIC "-//W3C//DTD SVG 1.1//EN" "http://www.w3.org/Graphics/SVG/1.1/DTD/svg11.dtd">
<svg version="1.1" id="Ebene_1" xmlns="http://www.w3.org/2000/svg" xmlns:xlink="http://www.w3.org/1999/xlink" x="0px" y="0px"
	 width="42.1964px" height="71.6382px" viewBox="0 0 42.1964 71.6382" style="enable-background:new 0 0 42.1964 71.6382;"
	 xml:space="preserve">
<path d="M34.4936,66.2187c-4.114,0-7.968,0.006-11.821-0.016c-0.228-0.002-0.548-0.175-0.668-0.367
	c-2.248-3.612-5.465-5.916-9.641-7.088c0.725-3.043,1.433-6.039,2.152-9.032c3.41-14.196,6.815-28.393,10.24-42.585
	c1.155-4.79,5.042-7.589,9.732-7.069c4.245,0.47,7.615,4.339,7.706,8.953c0.02,1.007-0.053,2.117-0.465,3.002
	c-0.323,0.692-1.257,1.088-1.879,1.659c-0.296,0.272-0.715,0.649-0.711,0.974c0.101,7.998,0.191,15.997,0.415,23.992
	c0.139,4.971,0.501,9.973,2.017,14.718c0.739,2.316,0.218,3.495-1.64,4.696c-1.255,0.811-2.299,1.955-3.411,2.978
	C35.0626,62.3727,33.8796,63.8497,34.4936,66.2187 M20.2676,51.2087c0.037,1.253,1.207,2.35,2.447,2.293
	c1.218-0.055,2.273-1.144,2.274-2.346c0-1.24-1.153-2.383-2.385-2.364C21.3636,48.8107,20.2326,49.9817,20.2676,51.2087
	 M31.0576,11.7647c1.315-0.013,2.348-1.061,2.322-2.354c-0.025-1.296-1.074-2.268-2.416-2.241c-1.287,0.027-2.252,1-2.256,2.275
	C28.7036,10.7497,29.7456,11.7777,31.0576,11.7647 M28.7076,21.0447c-1.309-0.032-2.384,0.977-2.419,2.269
	c-0.033,1.244,0.956,2.281,2.219,2.327c1.356,0.048,2.415-0.886,2.479-2.187C31.0486,22.1777,30.0066,21.0767,28.7076,21.0447
	 M26.2736,39.5477c1.305-0.02,2.373-1.112,2.318-2.368c-0.053-1.195-1.149-2.251-2.344-2.261c-1.263-0.01-2.377,1.092-2.373,2.347
	C23.8786,38.5577,24.9406,39.5677,26.2736,39.5477"/>
<path d="M10.1813,49.37h3.256c-0.237,1.083-0.405,2.048-0.684,2.98c-0.071,0.237-0.474,0.483-0.755,0.527
	c-0.537,0.084-1.096,0.024-1.816,0.024c0,0.713,0.025,1.335-0.005,1.954c-0.071,1.463-1.094,2.66-2.497,2.959
	c-1.382,0.294-2.847-0.413-3.41-1.788c-0.271-0.665-0.593-0.946-1.317-1.09c-1.685-0.333-2.925-2.002-2.953-3.738
	c-0.027-1.718,1.19-3.399,2.868-3.81c0.703-0.173,1.144-0.398,1.437-1.149c0.534-1.368,1.972-2.006,3.439-1.724
	c1.292,0.248,2.348,1.482,2.431,2.886C10.2103,47.99,10.1813,48.582,10.1813,49.37"/>
<path d="M16.7907,35.4954c-0.241,1.079-0.333,2.131-0.745,3.036c-0.173,0.379-1.026,0.449-1.808,0.752
	c0,0.282,0.011,0.823-0.002,1.362c-0.042,1.692-1.036,2.956-2.574,3.289c-1.4,0.303-2.796-0.554-3.522-2.051
	c-0.161-0.332-0.593-0.652-0.959-0.744c-1.757-0.442-3.069-1.95-3.157-3.749c-0.085-1.728,1.145-3.418,2.912-3.9
	c0.677-0.184,1.121-0.407,1.409-1.162c0.523-1.37,1.953-1.977,3.446-1.692c1.299,0.248,2.326,1.446,2.431,2.888
	c0.043,0.587,0.007,1.18,0.007,1.857C15.1017,35.4204,15.8757,35.4544,16.7907,35.4954"/>
<path d="M11.3468,27.36c-2.376-0.388-3.81-1.795-3.944-3.825c-0.126-1.91,1.199-3.474,3.42-4.13
	c0.296-0.087,0.598-0.423,0.738-0.719c0.729-1.542,1.982-2.258,3.531-1.951c1.521,0.302,2.464,1.494,2.5,3.17
	c0.011,0.508,0.002,1.015,0.002,1.632h2.574c-0.16,0.7-0.285,1.265-0.418,1.829c-0.126,0.537-0.259,1.072-0.407,1.682
	c-0.554,0.047-1.088,0.092-1.748,0.147c0,0.406,0.002,0.792,0,1.177c-0.012,2.126-0.987,3.422-2.774,3.69
	C13.2968,30.291,12.0098,29.309,11.3468,27.36"/>
<path d="M14.9275,5.4532c0.618-1.88,1.867-2.878,3.351-2.725c1.956,0.202,2.692,1.394,2.965,4.894
	c0.72,0.036,1.456,0.07399,2.252,0.11399c-0.152,0.7-0.329,1.347-0.427,2.005c-0.154,1.045-0.489,1.842-1.896,1.498
	c0,0.703,0.023,1.292-0.005,1.879c-0.075,1.546-1.104,2.707-2.604,2.97c-1.464,0.257-2.699-0.442-3.379-1.843
	c-0.162-0.332-0.459-0.743-0.774-0.833c-2.197-0.628-3.56-2.216-3.441-4.126C11.0955,7.2582,12.5505,5.83021,14.9275,5.4532"/>
<rect x="22.273" y="67.7662" width="12.015" height="3.872"/>
</svg>
