<?xml version="1.0" encoding="utf-8"?>
<!-- Generator: Adobe Illustrator 17.0.0, SVG Export Plug-In . SVG Version: 6.00 Build 0)  -->
<!DOCTYPE svg PUBLIC "-//W3C//DTD SVG 1.1//EN" "http://www.w3.org/Graphics/SVG/1.1/DTD/svg11.dtd">
<svg version="1.1" id="Ebene_1" xmlns="http://www.w3.org/2000/svg" xmlns:xlink="http://www.w3.org/1999/xlink" x="0px" y="0px"
	 width="58.961px" height="58.961px" viewBox="0 0 58.961 58.961" style="enable-background:new 0 0 58.961 58.961;"
	 xml:space="preserve">
<path d="M52.6268,58.9609H6.3338c-0.085-0.037-0.168-0.09-0.257-0.108c-2.664-0.522-4.512-2.055-5.565-4.541
	c-0.227-0.537-0.344-1.122-0.512-1.685c0-10.517,0-21.035,0-31.553c0.034-0.067,0.084-0.131,0.098-0.202
	c0.749-3.752,3.632-6.13,7.436-6.131c4.145-0.001,8.291-0.002,12.436-0.005c0.156,0,0.313-0.019,0.583-0.037
	c-0.515-0.503-0.944-0.915-1.365-1.335c-2.336-2.332-4.676-4.659-7.002-7.002c-2.056-2.072-1.263-5.325,1.507-6.239
	c0.085-0.028,0.161-0.081,0.241-0.123h1.613c0.627,0.38,1.358,0.654,1.866,1.155c3.896,3.837,7.748,7.717,11.614,11.583
	c0.144,0.145,0.297,0.281,0.508,0.478c0.167-0.197,0.293-0.367,0.441-0.515c3.579-3.583,7.166-7.159,10.738-10.751
	c0.798-0.802,1.583-1.6,2.701-1.95h1.612c0.025,0.028,0.046,0.073,0.076,0.08c2.849,0.672,3.824,4.304,1.488,6.506
	c-2.624,2.472-5.118,5.082-7.668,7.633c-0.141,0.142-0.271,0.294-0.48,0.522c0.3,0,0.486,0,0.672,0
	c4.163,0,8.326,0.003,12.489-0.001c3.271-0.002,6.161,2.155,7.076,5.293c0.101,0.345,0.188,0.694,0.281,1.041v31.553
	c-0.037,0.086-0.09,0.168-0.108,0.257c-0.601,2.943-2.358,4.851-5.188,5.795C53.3248,58.7919,52.9728,58.8679,52.6268,58.9609
	 M27.6378,51.5919c6.179,0,12.358,0.001,18.538-0.001c1.121-0.001,1.728-0.588,1.729-1.685c0.003-8.674,0.002-17.348-0.001-26.022
	c-0.001-1.202-0.573-1.773-1.756-1.773c-12.34-0.002-24.679-0.002-37.019,0c-1.182,0-1.758,0.581-1.759,1.77
	c-0.001,8.597-0.001,17.195,0.001,25.792c0,1.393,0.526,1.918,1.902,1.919C15.3938,51.5919,21.5158,51.5919,27.6378,51.5919
	 M51.5938,23.9659c0.017,0.99,0.877,1.838,1.853,1.827c0.979-0.01,1.837-0.881,1.827-1.854c-0.011-0.983-0.872-1.83-1.856-1.826
	C52.4408,22.1179,51.5768,22.9949,51.5938,23.9659 M55.2738,31.3379c0.011-0.976-0.845-1.844-1.826-1.851
	c-0.989-0.008-1.838,0.827-1.851,1.821c-0.013,0.978,0.837,1.844,1.821,1.855C54.3888,33.1739,55.2618,32.3149,55.2738,31.3379
	 M51.5928,38.6799c-0.014,0.971,0.848,1.846,1.825,1.854c0.969,0.007,1.842-0.852,1.856-1.828c0.014-0.968-0.852-1.846-1.826-1.853
	C52.4738,36.8459,51.6068,37.6999,51.5928,38.6799"/>
</svg>
