<?xml version="1.0" encoding="utf-8"?>
<!-- Generator: Adobe Illustrator 17.0.0, SVG Export Plug-In . SVG Version: 6.00 Build 0)  -->
<!DOCTYPE svg PUBLIC "-//W3C//DTD SVG 1.1//EN" "http://www.w3.org/Graphics/SVG/1.1/DTD/svg11.dtd">
<svg version="1.1" id="Ebene_1" xmlns="http://www.w3.org/2000/svg" xmlns:xlink="http://www.w3.org/1999/xlink" x="0px" y="0px"
	 width="86.4055px" height="74.7809px" viewBox="0 0 86.4055 74.7809" style="enable-background:new 0 0 86.4055 74.7809;"
	 xml:space="preserve">
<path d="M45.6567,74.7647c-11.824,0-23.647,0.05-35.47-0.026c-4.478-0.029-10.234-2.979-10.186-10.103
	c0.123-18.602,0.033-37.20399,0.058-55.80699c0.002-1.24,0.134-2.507,0.406-3.716c0.735-3.265,2.978-5.024,6.328-5.11
	c0.192-0.005,0.385-0.002,0.578-0.002c22.04,0,44.08-0.002,66.12,0.011c0.795,0.001,1.612,0.076,2.381,0.269
	c2.195,0.551,3.387,2.098,3.875,4.225c0.127,0.55701,0.31,0.799,0.923,0.833c3.731,0.206,5.729,2.333,5.729,6.056
	c0.003,17.446,0.024,34.892-0.025,52.337c-0.006,2.298-0.339,4.599-0.596,6.89c-0.073,0.65199-0.341,1.31-0.643,1.903
	c-0.743,1.461-1.929,2.24699-3.623,2.245C69.5597,74.7597,57.6077,74.7647,45.6567,74.7647 M76.80569,69.9687
	c-1.027-4.29501-0.71899-8.512-0.725-12.708c-0.022-16.384-0.009-32.768-0.009-49.152c0-3.193-0.2-3.396-3.35899-3.397
	c-21.653,0-43.306,0-64.958,0.003c-0.61,0-1.224-0.003-1.828,0.066c-1.236,0.141-1.879,0.683-2.097,1.898
	c-0.157,0.877-0.199,1.785-0.2,2.679c-0.011,14.617-0.008,29.235-0.008,43.852c0,3.855,0.01501,7.71-0.007,11.565
	c-0.009,1.587,0.648,2.807,1.944,3.651c1.475,0.95999,3.097,1.54199,4.884,1.54199c21.717,0.002,43.43399,0.00101,65.15099,0.00101
	H76.80569z M82.3787,38.8577c0.008,0,0.015,0,0.02299,0c0-8.674,0-17.347,0.001-26.021c0-0.546,0.054-1.095,0.01-1.637
	c-0.061-0.759-0.975-1.284-2.012-1.217c-0.894,0.057-0.54,0.75-0.541,1.169c-0.018,17.572-0.03,35.144,0.008,52.717
	c0.004,1.719,0.299,3.443,0.54,5.153c0.046,0.331,0.471,0.607,0.722,0.909c0.281-0.313,0.741-0.591,0.809-0.945
	c0.224-1.162,0.418-2.35001,0.422-3.529C82.3937,56.5907,82.3787,47.7237,82.3787,38.8577"/>
<path d="M21.6259,34.4388c-2.57,0-5.14,0-7.709,0c-3.876,0-5.469-1.457-5.536-5.374c-0.088-5.138-0.033-10.279-0.022-15.418
	c0.001-0.574,0.089-1.151,0.179-1.72c0.437-2.769,1.9-4.015,4.727-4.018c5.461-0.007,10.921-0.00301,16.382-0.002
	c3.178,0.001,4.651,1.307,5.038,4.466c0.024,0.191,0.039,0.384,0.039,0.576c0.003,5.46,0.01,10.919-0.005,16.379
	c-0.001,0.539-0.105,1.086-0.222,1.617c-0.508,2.297-1.92,3.463-4.294,3.487C27.3439,34.4608,24.4849,34.4388,21.6259,34.4388"/>
<path d="M39.6643,45.5061c-9.734,0-19.467-0.008-29.201,0.012c-1.007,0.002-1.884-0.131-2.29-1.174
	c-0.455-1.172-0.481-2.354,0.384-3.352c0.283-0.328,0.803-0.48,1.243-0.633c0.259-0.09,0.573-0.025,0.862-0.025
	c19.339-0.001,38.677-0.001,58.016,0c2.23299,0,3.393,1.737,2.56499,3.836c-0.393,0.998-1.115,1.354-2.186,1.351
	C59.2603,45.4951,49.4623,45.5061,39.6643,45.5061"/>
<path d="M56.1776,51.0728c4.241,0,8.481-0.002,12.722,0.001c1.539,0.001,2.438,0.946,2.391,2.58c-0.035,1.259-0.666,2.612-2.43,2.6
	c-8.416-0.058-16.833-0.025-25.25-0.026c-1.347-0.001-1.943-0.407-2.318-1.569c-0.388-1.198-0.069-2.681,0.808-3.246
	c0.371-0.239,0.898-0.323,1.355-0.326C47.6966,51.0628,51.9366,51.0728,56.1776,51.0728"/>
<path d="M57.4751,24.2197c-4.239,0-8.48-0.06-12.717,0.031c-1.599,0.034-2.317-1.263-2.329-2.562
	c-0.011-1.272,0.663-2.645,2.357-2.631c8.477,0.071,16.956,0.069,25.434,0.001c1.626-0.013,2.32,1.307,2.32999,2.56
	c0.012,1.343-0.722,2.67-2.35799,2.633C65.9551,24.1557,61.7141,24.2197,57.4751,24.2197"/>
<path d="M56.1358,67.1019c-4.176,0-8.352,0.003-12.528-0.002c-1.663-0.001-2.481-0.871-2.469-2.598
	c0.012-1.71,0.85-2.571,2.515-2.572c8.384-0.001,16.768-0.001,25.152,0c1.29601,0,1.929,0.414,2.298,1.484
	c0.41199,1.196,0.089,2.798-0.789,3.339c-0.405,0.249-0.967,0.332-1.458,0.335C64.6158,67.1129,60.3758,67.1019,56.1358,67.1019"/>
<path d="M57.5251,13.3047c-4.237,0-8.475,0.002-12.712-0.001c-1.339-0.001-1.947-0.435-2.275-1.603
	c-0.339-1.202,0.062-2.728,0.915-3.223c0.311-0.181,0.728-0.25,1.097-0.25c8.635-0.014,17.27-0.015,25.905-0.006
	c1.324,0.001,2.101,0.977,2.09599,2.55c-0.005,1.57199-0.783,2.52499-2.12099,2.528
	C66.1281,13.3117,61.8271,13.3047,57.5251,13.3047"/>
<path d="M57.4873,30.005c4.237,0,8.47499-0.003,12.71199,0.001c1.556,0.002,2.372,0.907,2.35201,2.588
	c-0.02,1.653-0.805,2.498-2.348,2.498c-8.474,0.003-16.949,0.003-25.424,0c-1.556,0-2.372-0.907-2.351-2.589
	c0.021-1.652,0.806-2.495,2.347-2.497C49.0123,30.002,53.2503,30.005,57.4873,30.005"/>
<path d="M21.5305,66.8c-3.726,0-7.453,0.003-11.179-0.00101c-1.474-0.002-2.327-0.935-2.345-2.544
	c-0.017-1.623,0.811-2.618,2.265-2.62c7.517-0.013,15.034-0.013,22.551-0.001c1.429,0.003,2.295,1.049,2.26,2.639
	c-0.034,1.573-0.876,2.522-2.276,2.52399C29.0475,66.805,25.2895,66.8,21.5305,66.8"/>
<path d="M21.5454,55.868c-3.759,0-7.518,0.003-11.277-0.001c-1.435-0.002-2.244-0.903-2.261-2.497
	c-0.018-1.625,0.828-2.651,2.245-2.653c7.518-0.009,15.036-0.009,22.554,0c1.416,0.002,2.301,1.054,2.276,2.637
	c-0.026,1.594-0.842,2.511-2.26,2.512C29.0634,55.871,25.3044,55.868,21.5454,55.868"/>
</svg>
