<?xml version="1.0" encoding="utf-8"?>
<!-- Generator: Adobe Illustrator 17.0.0, SVG Export Plug-In . SVG Version: 6.00 Build 0)  -->
<!DOCTYPE svg PUBLIC "-//W3C//DTD SVG 1.1//EN" "http://www.w3.org/Graphics/SVG/1.1/DTD/svg11.dtd">
<svg version="1.1" id="Ebene_1" xmlns="http://www.w3.org/2000/svg" xmlns:xlink="http://www.w3.org/1999/xlink" x="0px" y="0px"
	 width="83.40451px" height="60.25461px" viewBox="0 0 83.40451 60.25461" style="enable-background:new 0 0 83.40451 60.25461;"
	 xml:space="preserve">
<path d="M0,4.63701c3.046,1.053,6.082,2.136,9.141,3.149c2.561,0.848,4.987,0.569,7.305-0.914c3.567-2.283,7.28-4.306,11.279-5.746
	c3.489-1.257,6.819-0.956,9.93,1.134c0.399,0.269,0.742,0.624,1.198,1.013c-0.328,0.194-0.573,0.341-0.819,0.484
	c-3.304,1.921-6.633,3.801-9.904,5.775c-2.795,1.686-4.239,4.211-4.191,7.505c0.063,4.322,3.917,8.129,8.231,7.969
	c1.283-0.048,2.6-0.531,3.807-1.037c2.647-1.111,5.234-2.364,7.846-3.56c2.71-1.241,4.655-0.883,6.782,1.243
	c5.107,5.103,10.215,10.205,15.324,15.307c1.544,1.543,1.629,3.842,0.192,5.327c-1.442,1.49-3.731,1.463-5.319-0.082
	c-1.731-1.684-3.436-3.396-5.183-5.064c-0.307-0.294-0.666-0.92-1.173-0.431c-0.129,0.124,0.162,0.891,0.441,1.197
	c1.574,1.722,3.202,3.395,4.814,5.082c1.786,1.869,1.565,4.623-0.478,5.916c-1.519,0.961-3.42,0.652-4.815-0.736
	c-2.057-2.048-4.131-4.08-6.216-6.1c-0.259-0.251-0.627-0.387-0.944-0.575c-0.085,0.091-0.17,0.182-0.254,0.273
	c0.33,0.492,0.605,1.037,1.002,1.467c1.51,1.635,3.047,3.244,4.597,4.84c1.031,1.06,1.443,2.291,1.055,3.719
	c-0.372,1.367-1.296,2.233-2.678,2.564c-1.358,0.326-2.513-0.087-3.486-1.057c-1.997-1.993-3.989-3.99-5.987-5.983
	c-0.133-0.133-0.28-0.28-0.449-0.341c-0.149-0.054-0.398-0.062-0.493,0.027c-0.103,0.097-0.163,0.375-0.097,0.493
	c0.197,0.351,0.434,0.691,0.71,0.983c1.399,1.478,2.838,2.919,4.217,4.414c1.093,1.185,1.244,2.859,0.47,4.23
	c-1.095,1.938-3.681,2.474-5.397,1.055c-0.769-0.636-1.429-1.407-2.111-2.142c-0.121-0.129-0.162-0.389-0.146-0.581
	c0.359-4.202-1.476-7.241-5.346-8.895c-0.25-0.107-0.503-0.402-0.592-0.664c-0.85-2.513-2.461-4.289-4.936-5.287
	c-0.253-0.102-0.505-0.399-0.603-0.663c-0.872-2.347-2.438-3.991-4.768-4.931c-0.275-0.111-0.554-0.426-0.66-0.71
	c-1.543-4.129-5.834-6.303-10.158-5.185c-3.082,0.796-5.243,2.605-6.459,5.545c-0.051,0.123-0.124,0.236-0.174,0.332
	c-1.525-0.461-3.015-0.912-4.505-1.363C0,23.96801,0,14.30201,0,4.63701"/>
<path d="M83.4045,32.65571c-2.902,0.533-5.79301,1.139-8.709,1.574c-2.109,0.314-3.90701-0.445-5.441-1.972
	c-5.578-5.552-11.199-11.06-16.792-16.596c-1.657-1.64-3.606-2.017-5.675-1.121c-2.183,0.945-4.27,2.113-6.393,3.196
	c-2.051,1.047-4.085,2.127-6.142,3.161c-2.329,1.17-5.122,0.24-6.342-2.08c-1.188-2.259-0.361-5.083,1.878-6.346
	c6.68-3.767,13.36-7.536,20.056-11.275c0.819-0.457,1.709-0.855,2.616-1.071c1.914-0.456,3.527,0.393,4.944,1.544
	c2.694,2.189,5.344,4.436,7.96799,6.71c1.064,0.92,2.137,1.858,3.577,1.905c1.142,0.037,2.31-0.185,3.43999-0.419
	c3.553-0.737,7.094-1.534,10.638-2.311c0.13-0.029,0.25201-0.098,0.37701-0.148V32.65571z"/>
<path d="M13.5727,42.35371c-0.761,0.207-1.377,0.381-1.996,0.543c-2.812,0.735-4.445-1.641-4.397-3.623
	c0.069-2.904,2.538-5.992,5.26-6.476c3.256-0.58,5.753,1.847,5.256,5.11c-0.024,0.16-0.054,0.319-0.1,0.584
	c1.64-0.232,3.171-0.084,4.39,1.123c1.244,1.232,1.324,2.775,1.037,4.476c1.776-0.177,3.402-0.042,4.593,1.386
	c1.15,1.38,1.253,2.944,0.714,4.673c0.683-0.057,1.319-0.2,1.938-0.145c2.949,0.266,4.719,2.932,3.896,5.801
	c-0.928,3.234-5.435,5.374-8.534,4.052c-1.38-0.589-2.232-2.136-1.871-3.588c0.226-0.909,0.613-1.779,0.954-2.742
	c-0.702,0.188-1.363,0.41-2.041,0.536c-1.348,0.251-2.667,0.266-3.69-0.875c-0.777-0.868-1.097-1.859-0.734-3.007
	c0.218-0.693,0.447-1.382,0.712-2.197c-0.741,0.189-1.378,0.366-2.022,0.513c-1.267,0.29-2.427,0.166-3.346-0.886
	c-0.927-1.061-1.145-2.235-0.623-3.55C13.1677,43.55871,13.3307,43.04171,13.5727,42.35371"/>
</svg>
