<?xml version="1.0" encoding="utf-8"?>
<!-- Generator: Adobe Illustrator 17.0.0, SVG Export Plug-In . SVG Version: 6.00 Build 0)  -->
<!DOCTYPE svg PUBLIC "-//W3C//DTD SVG 1.1//EN" "http://www.w3.org/Graphics/SVG/1.1/DTD/svg11.dtd">
<svg version="1.1" id="Ebene_1" xmlns="http://www.w3.org/2000/svg" xmlns:xlink="http://www.w3.org/1999/xlink" x="0px" y="0px"
	 width="97.062px" height="99.993px" viewBox="0 0 97.062 99.993" style="enable-background:new 0 0 97.062 99.993;"
	 xml:space="preserve">
<path d="M91.6048,31.6584c-0.548-0.978-1.09-1.96-1.637-2.939c-0.937-1.67799-1.879-3.352-2.814-5.031
	c-0.943-1.694-1.877-3.392-2.82-5.086c-0.87099-1.563-1.751-3.121-2.622-4.685c-1.007-1.80901-2.005-3.623-3.01299-5.431
	c-0.983-1.76501-1.98-3.523-2.954-5.29301c-0.127-0.23-0.23-0.24599-0.452-0.169c-0.78799,0.274-1.605,0.412-2.433,0.426
	c-0.585,0.01-1.174-0.038-1.758-0.096c-0.983-0.098-1.912-0.415-2.805-0.839c-1.258-0.59699-2.345-1.43999-3.277-2.515
	c-0.37901,0.22601-0.757,0.453-1.136,0.679c-19.443,11.635-38.886,23.269-58.334,34.90701c-0.909,0.543-1.817,1.087-2.726,1.631
	c0.622,1.965,0.686,3.934,0.174,5.914c-0.51501,1.991-1.536,3.668-2.998,5.043c0.086,0.164,0.153,0.296,0.225,0.425
	c0.518,0.93,1.039,1.857,1.557,2.787c0.566,1.016,1.128,2.034,1.694,3.05c0.518,0.929,1.039,1.856,1.558,2.785
	c0.575,1.03,1.15,2.06,1.724,3.09c0.514,0.922,1.026,1.845,1.539,2.768c0.521,0.937,1.041,1.875,1.563,2.812
	c0.56499,1.01599,1.132,2.03099,1.698,3.047c0.518,0.92999,1.034,1.86,1.553,2.789c0.56599,1.01599,1.133,2.03099,1.7,3.046
	c0.386,0.69199,0.772,1.383,1.153,2.077c0.071,0.12799,0.144,0.16899,0.289,0.12199c1.142-0.37199,2.306-0.58099,3.507-0.442
	c0.588,0.068,1.183,0.12,1.757,0.258c1.787,0.428,3.335,1.323,4.636,2.667c0.16,0.165,0.305,0.346,0.462,0.526
	c0.849-0.509,1.639-0.986,2.432-1.459c1.21-0.72301,2.424-1.44,3.634-2.163c1.203-0.72,2.401-1.447,3.604-2.167
	c1.209-0.723,2.424-1.439,3.634-2.163c1.396-0.837,2.788-1.682,4.186-2.518c1.321-0.79,2.648-1.57,3.968-2.361
	c1.585-0.95,3.163-1.911,4.747-2.86c1.633-0.978,3.273-1.946,4.907-2.924c1.508-0.902,3.012-1.814,4.52-2.716
	c1.634-0.978,3.273-1.947,4.90699-2.924c1.508-0.903,3.012-1.814,4.52-2.717c1.52299-0.911,3.05-1.814,4.573-2.724
	c1.432-0.856,2.862-1.717,4.293-2.577c0.903-0.542,1.803-1.089,2.707-1.629c0.897-0.537,1.798-1.065,2.695-1.601
	c0.911-0.544,1.819-1.094,2.731-1.637c0.118-0.07,0.153-0.135,0.104-0.28c-0.266-0.781-0.395-1.595-0.446-2.415
	c-0.055-0.9,0-1.8,0.184-2.688c0.242-1.173,0.641-2.279,1.252-3.303c0.494-0.827,1.05701-1.58801,1.773-2.222
	C91.62779,31.8564,91.6768,31.7864,91.6048,31.6584 M82.1568,36.3524c-0.51501,0.611-1.18,0.997-1.844,1.391
	c-0.877,0.521-1.751,1.049-2.627,1.573c-0.897,0.537-1.79401,1.072-2.692,1.607c-0.897,0.536-1.795,1.072-2.692,1.608
	c-0.896,0.537-1.793,1.074-2.689,1.611c-0.869,0.52-1.738,1.041-2.606,1.561c-0.897,0.537-1.793,1.075-2.69,1.611
	c-0.897,0.536-1.796,1.069-2.694,1.605c-0.994,0.594-1.987,1.19-2.98,1.786c-0.896,0.538-1.79,1.079-2.687,1.615
	s-1.798,1.066-2.695,1.602c-0.974,0.581-1.945,1.167-2.918,1.751c-0.896,0.538-1.793,1.074-2.69,1.611
	c-0.98,0.587-1.961,1.172-2.941,1.759c-0.896,0.537-1.792,1.077-2.689,1.612c-0.897,0.536-1.796,1.068-2.694,1.604
	c-0.911,0.543-1.823,1.087-2.733,1.633c-0.861,0.516-1.721,1.037-2.582,1.554c-0.897,0.537-1.794,1.073-2.691,1.609
	s-1.794,1.073-2.693,1.606c-1.011,0.59901-2.016,1.207-3.038,1.785c-0.484,0.273-1.022,0.4-1.578,0.383
	c-0.637-0.021-1.194-0.257-1.703-0.661c-0.601-0.477-0.949-1.142-1.318-1.794c-0.532-0.93999-1.054-1.887-1.578-2.831
	c-0.517-0.931-1.029-1.864-1.546-2.793c-0.561-1.01-1.126-2.017-1.689-3.025c-0.519-0.929-1.038-1.857-1.556-2.787
	c-0.566-1.016-1.13-2.032-1.696-3.049c-0.521-0.936-1.04301-1.873-1.565-2.81c-0.517-0.929-1.036-1.859-1.551-2.79
	c-0.371-0.669-0.784-1.317-0.936-2.095c-0.174-0.89-0.011-1.693,0.507-2.426c0.436-0.617,1.047-0.998,1.669-1.369
	c0.884-0.527,1.764-1.06,2.647-1.588c0.89-0.533,1.781-1.063,2.672-1.594c0.898-0.535,1.796-1.069,2.693-1.605
	c0.994-0.595,1.988-1.191,2.981-1.787c0.896-0.538,1.79-1.079,2.687-1.615c0.897-0.536,1.798-1.066,2.695-1.60101
	c0.856-0.51099,1.71-1.02599,2.564-1.53899c0.889-0.535,1.776-1.071,2.666-1.60201c0.898-0.536,1.8-1.064,2.697-1.6
	c0.897-0.536,1.79-1.079,2.686-1.617c1.438-0.86401,2.875-1.728,4.314-2.58801c1.412-0.84399,2.828-1.681,4.239-2.526
	c1.619-0.96899,3.234-1.947,4.854-2.916c1.634-0.977,3.273-1.946,4.907-2.923c1.508-0.903,3.012-1.813,4.52-2.717
	c1.57-0.94199,3.137-1.89,4.716-2.81699c0.661-0.388,1.234-0.65401,1.783-0.622c1.333,0.009,2.139,0.589,2.722,1.501
	c0.522,0.817,0.976,1.682,1.453,2.529c0.506,0.898,1.003,1.802,1.505,2.702c0.519,0.929,1.039,1.857,1.557,2.787
	c0.566,1.015,1.13,2.033,1.695,3.049c0.525,0.944,1.049,1.889,1.575,2.832c0.563,1.009,1.128,2.016,1.68999,3.02399
	c0.519,0.929,1.037,1.859,1.554,2.788c0.437,0.786,0.883,1.567,1.306,2.361c0.27,0.508,0.426,1.071,0.433,1.646
	C82.8728,35.1034,82.64079,35.7774,82.1568,36.3524"/>
<path d="M96.8106,60.7378c-0.77-0.323-1.47701-0.771-2.11401-1.319c-0.45-0.387-0.867-0.821-1.27299-1.26
	c-0.68501-0.737-1.191-1.605-1.60201-2.53c-0.57899-1.301-0.874-2.675-0.906-4.121c-0.43-0.083-0.859-0.167-1.289-0.251
	c-2.516-0.489-5.032-0.979-7.548-1.469c-0.493,0.297-0.986,0.594-1.479,0.891c-1.431,0.859-2.861,1.72-4.293,2.576
	c-1.52299,0.911-3.05,1.814-4.573,2.725c-1.508,0.902-3.012,1.814-4.52,2.716c-1.634,0.978-3.273,1.947-4.907,2.924
	c-1.509,0.903-3.012,1.814-4.521,2.717c-1.634,0.977-3.273,1.945-4.906,2.924c-1.585,0.94899-3.163,1.91-4.747,2.85899
	c-1.32,0.792-2.648,1.571-3.968,2.361c-1.398,0.837-2.79,1.682-4.187,2.519c-1.209,0.724-2.424,1.439-3.634,2.16299
	c-1.202,0.719-2.401,1.447-3.603,2.166c-1.21,0.724-2.424,1.441-3.634,2.163c-0.793,0.473-1.583,0.95-2.432,1.46
	c-0.157-0.18-0.302-0.361-0.462-0.526c-1.301-1.344-2.849-2.239-4.636-2.667c-0.574-0.138-1.169-0.191-1.758-0.259
	c-1.2-0.13799-2.36501,0.07101-3.507,0.442c-0.144,0.047-0.217,0.007-0.288-0.122c-0.381-0.694-0.768-1.38499-1.153-2.076
	c-0.567-1.016-1.134-2.03-1.701-3.046c-0.518-0.929-1.035-1.86-1.552-2.789c-0.566-1.016-1.133-2.032-1.699-3.048
	c-0.521-0.936-1.041-1.87399-1.562-2.811c-0.258-0.464-0.516-0.928-0.77399-1.392c-0.18501,1.025-0.37,2.05-0.556,3.074
	c-0.191,1.055-0.384,2.11-0.575,3.165c-0.208,1.153-0.415,2.306-0.623,3.459c-0.142,0.785-0.283,1.57-0.43,2.354
	c-0.027,0.146,0.00301,0.22501,0.14201,0.287c1.1,0.489,2.115,1.117,2.939,2.032c0.404,0.44901,0.822,0.89,1.171,1.383
	c1.08701,1.531,1.69901,3.255,1.842,5.153c0.018,0.233,0.014,0.468,0.02,0.711c0.964,0.186,1.864,0.358,2.76299,0.534
	c1.372,0.269,2.744,0.544,4.116,0.812c1.365,0.266,2.732,0.522,4.096,0.788c1.373,0.268,2.744,0.545,4.117,0.812
	c1.586,0.30801,3.173,0.606,4.759,0.915c1.499,0.292,2.996,0.596,4.495,0.887c1.799,0.349,3.6,0.68501,5.399,1.034
	c1.855,0.36,3.707,0.73199,5.561,1.09399c1.712,0.33301,3.426,0.65601,5.137,0.99001c1.854,0.36099,3.707,0.73199,5.561,1.093
	c1.712,0.334,3.425,0.657,5.137,0.98999c1.728,0.33701,3.454,0.68201,5.182,1.02c1.625,0.317,3.251,0.629,4.87701,0.942
	c1.02599,0.198,2.05299,0.391,3.078,0.591c1.018,0.198,2.034,0.40599,3.051,0.605c1.033,0.202,2.068,0.39799,3.101,0.601
	c0.133,0.026,0.202,0.00101,0.255-0.142c0.289-0.772,0.702-1.478,1.179-2.134c0.524-0.72,1.131-1.366,1.828-1.916
	c0.922-0.726,1.919-1.296,3.027-1.66c0.893-0.29501,1.8-0.492,2.741-0.48901c0.115,0,0.197-0.021,0.222-0.16499
	c0.19901-1.113,0.405-2.224,0.605-3.336c0.34299-1.905,0.681-3.812,1.027-5.717c0.348-1.922,0.70599-3.842,1.055-5.763
	c0.322-1.774,0.633-3.551,0.95499-5.325c0.373-2.052,0.755-4.103,1.12701-6.15501c0.363-2.004,0.711-4.00999,1.084-6.01099
	C97.0956,60.9108,97.0276,60.8288,96.8106,60.7378"/>
<path d="M67.24059,10.8007c0.991,0.006,1.555,0.458,1.96301,1.205c0.703,1.29,1.42799,2.56499,2.142,3.848
	c0.634,1.139,1.262,2.282,1.897,3.42c0.63,1.131,1.26801,2.257,1.899,3.388c0.567,1.016,1.126,2.036,1.692,3.052
	c0.827,1.484,1.659,2.965,2.485,4.449c0.567,1.016,1.138,2.029,1.689,3.054c0.45599,0.849,0.30399,1.725-0.28201,2.401
	c-0.234,0.27-0.574,0.449-0.884,0.637c-1.23901,0.754-2.485,1.497-3.73,2.241c-1.21,0.723-2.424,1.439-3.634,2.163
	c-1.203,0.719-2.401,1.447-3.604,2.166c-1.21,0.724-2.424,1.439-3.634,2.163c-1.279,0.766-2.552,1.541-3.83099,2.307
	c-1.015,0.607-2.036,1.205-3.051,1.812c-0.974,0.582-1.942,1.173-2.915,1.755c-0.897,0.537-1.797,1.067-2.695,1.603
	c-0.897,0.536-1.792,1.076-2.688,1.613c-0.876,0.525-1.754,1.046-2.629,1.572c-1.633,0.979-3.263,1.963-4.896,2.941
	c-1.328,0.795-2.662,1.579-3.99,2.373c-1.509,0.903-3.012,1.815-4.521,2.717c-1.439,0.861-2.884,1.713-4.324,2.571
	c-1.476,0.879-2.952,1.758-4.423,2.645c-0.926,0.558-2.158,0.23599-2.693-0.72301c-0.923-1.657-1.845-3.31499-2.767-4.973
	c-1.038-1.868-2.075-3.735-3.113-5.602c-1.035-1.86-2.069-3.72-3.106-5.578c-0.872-1.563-1.754-3.119-2.618-4.687
	c-0.229-0.414-0.491-0.813-0.555-1.315c-0.079-0.622,0.055-1.187,0.476-1.605c0.365-0.362,0.819-0.636,1.258-0.908
	c0.901-0.56,1.819-1.093,2.73-1.638c0.89-0.531,1.781-1.063,2.671-1.595c0.869-0.52,1.737-1.042,2.606-1.561
	c0.904-0.541,1.809-1.08,2.713-1.62c0.891-0.531,1.781-1.063,2.671-1.595c0.994-0.595,1.988-1.191,2.981-1.78699
	c0.896-0.537,1.791-1.078,2.688-1.61401c0.98-0.587,1.962-1.17,2.943-1.757c0.896-0.536,1.791-1.077,2.688-1.613
	c0.897-0.537,1.797-1.069,2.694-1.604c0.856-0.511,1.71-1.024,2.565-1.53699c0.896-0.538,1.79-1.079,2.687-1.61501
	c0.98-0.587,1.964-1.168,2.944-1.755c0.89-0.532,1.776-1.071,2.666-1.60201c0.897-0.536,1.799-1.06499,2.696-1.601
	c0.911-0.545,1.818-1.096,2.728-1.643c1.431-0.859,2.861-1.719,4.294-2.575c1.717-1.027,3.437-2.05,5.15499-3.076
	c0.355-0.212,0.702-0.438,1.058-0.647C66.65759,10.8827,67.0006,10.7707,67.24059,10.8007 M48.6576,39.2787
	c-0.092-0.182-0.143-0.295-0.203-0.402c-0.692-1.238-1.385-2.475-2.077-3.713c-0.661-1.18-1.324-2.358-1.975-3.544
	c-0.096-0.174-0.179-0.177-0.321-0.09c-0.693,0.419-1.386,0.839-2.083,1.251c-0.133,0.078-0.142,0.158-0.073,0.281
	c0.391,0.697,0.78,1.396,1.17,2.094c0.563,1.008,1.128,2.015,1.689,3.02399c0.517,0.93,1.03,1.862,1.546,2.792
	c0.524,0.945,1.05,1.889,1.576,2.832c0.252,0.452,0.506,0.902,0.764,1.361c0.094-0.045,0.17-0.073,0.238-0.115
	c0.687-0.413,1.37-0.835,2.062-1.24c0.177-0.104,0.116-0.203,0.049-0.323c-0.561-1-1.122-1.999-1.681-2.999
	c-0.161-0.289-0.315-0.582-0.472-0.873c0.448,0.176,0.851,0.399,1.256,0.616c1.137,0.608,2.277,1.21,3.41,1.825
	c0.162,0.088,0.285,0.062,0.426-0.023c0.7-0.424,1.402-0.843,2.102-1.267c0.196-0.118,0.385-0.246,0.605-0.387
	c-0.845-0.399-1.639-0.779-2.438-1.15c-0.974-0.451-1.953-0.893-2.927-1.347c-0.051-0.024-0.102-0.129-0.097-0.192
	c0.028-0.364,0.07-0.727,0.114-1.09c0.07-0.584,0.147-1.168,0.22-1.752c0.076-0.601,0.156-1.201,0.227-1.80199
	c0.03-0.253,0.044-0.508,0.071-0.825c-0.991,0.594-1.907,1.14201-2.821,1.696c-0.044,0.027-0.087,0.09901-0.089,0.153
	c-0.054,1.066-0.105,2.133-0.149,3.199c-0.024,0.568-0.032,1.137-0.052,1.705C48.7216,39.0517,48.6916,39.1297,48.6576,39.2787
	 M62.5376,32.3187c-0.177-0.314-0.347-0.596-0.498-0.888c-0.39-0.752-0.888-1.409-1.544-1.92899
	c-0.786-0.623-1.699-0.917-2.656-0.73801c-1.675,0.314-2.994,1.206-3.726,2.872c-0.371,0.842-0.497,1.731-0.321,2.634
	c0.289,1.489,0.969,2.762,2.113,3.737c0.962,0.82,2.063,1.062,3.279,0.818c0.721-0.146,1.362-0.478,1.987-0.859
	c0.861-0.526,1.622-1.167,2.217-2.009c0.089-0.124,0.127-0.225,0.028-0.378c-0.168-0.263-0.303-0.549-0.457-0.822
	c-0.148-0.263-0.302-0.521-0.47-0.809c-0.616,1.07-1.45,1.812-2.507,2.28199c-0.541,0.241-1.101,0.325-1.668,0.113
	c-0.434-0.163-0.762-0.465-0.992-0.901C59.0666,34.3967,60.7886,33.3657,62.5376,32.3187 M28.6656,41.6587
	c-2.989,1.787-5.942,3.552-8.911,5.326c0.402,0.72,0.786,1.408,1.182,2.119c1.066-0.637,2.113-1.262,3.165-1.889
	c0.032,0.029,0.063,0.046,0.077,0.072c0.331,0.6,0.657,1.202,0.99,1.8c0.516,0.93,1.037,1.858,1.555,2.787
	c0.567,1.016,1.131,2.033,1.697,3.048c0.306,0.548,0.615,1.094,0.917,1.643c0.062,0.113,0.112,0.128,0.226,0.058
	c0.733-0.449,1.469-0.892,2.208-1.329c0.125-0.074,0.161-0.141,0.086-0.275c-0.384-0.683-0.761-1.37-1.144-2.054
	c-0.613-1.093-1.229-2.184-1.842-3.278c-0.581-1.035-1.16-2.072-1.738-3.11c-0.162-0.291-0.316-0.587-0.478-0.888
	c0.362-0.217,0.696-0.417,1.029-0.616c0.662-0.394,1.323-0.787,1.985-1.18c0.132-0.079,0.194-0.16,0.073-0.315
	c-0.089-0.114-0.143-0.259-0.216-0.388C29.2446,42.6867,28.9616,42.1847,28.6656,41.6587 M62.9116,22.22169
	c-0.155,0.182-0.275,0.33801-0.409,0.479c-0.483,0.508-0.969,1.013-1.46,1.512c-0.132,0.134-0.152,0.263-0.06,0.421
	c0.143,0.25,0.287,0.5,0.428,0.752c0.155,0.278,0.307,0.557,0.461,0.837c-0.449,0.271-0.87,0.524-1.301,0.784
	c0.315,0.563,0.629,1.096,0.913,1.645c0.109,0.21,0.196,0.203,0.368,0.091c0.344-0.223,0.702-0.424,1.066-0.641
	c0.329,0.591,0.64,1.16299,0.964,1.725c0.547,0.948,1.063,1.92,1.669,2.826c0.45499,0.681,1.128,1.083,1.971,1.068
	c0.56799-0.01099,1.084-0.209,1.572-0.493c0.547-0.318,1.076-0.659,1.48-1.176c0.114-0.145,0.08701-0.242,0.014-0.372
	c-0.197-0.353-0.389-0.709-0.586-1.061c-0.11-0.196-0.227-0.388-0.378-0.645c-0.213,0.24-0.391,0.433-0.56,0.634
	c-0.201,0.239-0.76601,0.37-1.11301,0.177c-0.307-0.17-0.503-0.437-0.67-0.732c-0.491-0.868-0.973-1.742-1.457-2.614
	c-0.147-0.263-0.29-0.529-0.444-0.81c0.54601-0.329,1.05901-0.654,1.58701-0.94901c0.197-0.11,0.17899-0.201,0.08199-0.367
	c-0.27399-0.47-0.53999-0.945-0.796-1.425c-0.091-0.172-0.166-0.202-0.334-0.095c-0.465,0.297-0.942,0.57101-1.412,0.859
	c-0.13,0.079-0.216,0.065-0.28999-0.07899c-0.12701-0.249-0.263-0.495-0.4-0.73901
	C63.5236,23.3087,63.2286,22.7857,62.9116,22.22169 M43.7216,40.1857c-0.355-0.636-0.721-1.242-1.036-1.876
	c-0.135-0.272-0.318-0.277-0.534-0.244c-0.197,0.03-0.396,0.081-0.58,0.158c-1.038,0.434-1.995,0.993-2.778,1.846
	c-1.056,1.151-1.498,2.515-1.222,4.06c0.244,1.363,0.856,2.559,1.922,3.455c1.015,0.853,2.19,1.179,3.455,0.915
	c1.544-0.321,2.824-1.151,3.808-2.446c0.101-0.133,0.108-0.235,0.027-0.377c-0.254-0.444-0.495-0.895-0.746-1.341
	c-0.088-0.156-0.189-0.303-0.307-0.49c-0.39,0.723-0.849,1.294-1.499,1.667c-0.552,0.318-1.134,0.491-1.781,0.36
	c-0.609-0.125-1.068-0.46-1.44-0.963c-0.401-0.54-0.692-1.13-0.738-1.813c-0.06-0.878,0.268-1.583,0.938-2.134
	C41.9376,40.3647,42.7596,40.1277,43.7216,40.1857 M34.2856,42.7247c-0.057,0.038-0.095,0.067-0.135,0.091
	c-0.614,0.362-1.229,0.721-1.842,1.085c-0.43,0.255-0.429,0.257-0.185,0.723c0.008,0.015,0.017,0.028,0.025,0.043
	c0.525,0.944,1.05,1.887,1.575,2.831c0.513,0.923,1.027,1.844,1.539,2.767c0.376,0.678,0.751,1.356,1.125,2.035
	c0.067,0.123,0.141,0.161,0.27,0.083c0.692-0.421,1.384-0.841,2.083-1.249c0.157-0.092,0.185-0.174,0.096-0.332
	c-0.352-0.625-0.695-1.255-1.045-1.881c-0.562-1.008-1.128-2.014-1.689-3.023c-0.558-1.001-1.112-2.004-1.67-3.005
	C34.3986,42.8317,34.3396,42.7857,34.2856,42.7247 M30.0176,40.93069c0.006,0.056,0.01,0.148,0.029,0.236
	c0.224,1.035,1.276,1.483,2.168,1.032c0.94-0.475,1.326-1.408,0.843-2.268c-0.284-0.506-0.73-0.751-1.268-0.749
	c-0.43,0.002-0.821,0.208-1.155,0.494C30.2666,39.9897,30.0276,40.38169,30.0176,40.93069"/>
<path d="M56.4396,33.8875c-0.343-0.711-0.384-1.83099,0.201-2.449c0.537-0.568,1.476-0.831,2.145-0.108
	c0.218,0.236,0.407,0.5,0.628,0.774C58.3906,32.7185,57.4226,33.2985,56.4396,33.8875"/>
</svg>
