<?xml version="1.0" encoding="utf-8"?>
<!-- Generator: Adobe Illustrator 17.0.0, SVG Export Plug-In . SVG Version: 6.00 Build 0)  -->
<!DOCTYPE svg PUBLIC "-//W3C//DTD SVG 1.1//EN" "http://www.w3.org/Graphics/SVG/1.1/DTD/svg11.dtd">
<svg version="1.1" id="Ebene_1" xmlns="http://www.w3.org/2000/svg" xmlns:xlink="http://www.w3.org/1999/xlink" x="0px" y="0px"
	 width="51.7935px" height="32.64481px" viewBox="0 0 51.7935 32.64481" style="enable-background:new 0 0 51.7935 32.64481;"
	 xml:space="preserve">
<path d="M0.6715,11.47071c0.772-0.315,1.495-0.345,2.122,0.327c0.339,0.363,0.432,0.796,0.419,1.267
	c-0.005,0.189-0.038,0.378-0.065,0.627c0.245-0.064,0.379-0.09,0.507-0.133c9.981-3.3,19.96-6.605,29.944-9.894
	c0.4-0.132,0.563-0.296,0.511-0.723c-0.049-0.406-0.03-0.821-0.028-1.232c0.003-0.969,0.681-1.694,1.59-1.709
	c0.908-0.016,1.624,0.68,1.646,1.655c0.064,2.796,0.111,5.593,0.162,8.39c0.127,6.905,0.249,13.81,0.385,20.715
	c0.014,0.708-0.191,1.284-0.804,1.655c-1.016,0.613-2.33-0.07-2.428-1.261c-0.044-0.535-0.011-1.076-0.054-1.61
	c-0.011-0.141-0.147-0.357-0.268-0.393c-4.94-1.44-9.885-2.863-14.83-4.287c-0.043-0.013-0.092-0.004-0.179-0.006
	c-0.655,1.78-1.838,3.089-3.616,3.819c-1.349,0.555-2.727,0.607-4.133,0.224c-2.454-0.67-5.205-3.444-4.381-7.587
	c-1.248-0.36-2.499-0.721-3.751-1.082c-0.072,0.016-0.145,0.033-0.218,0.05c0.052,0.199,0.146,0.397,0.15,0.597
	c0.024,1.335-1.053,2.089-2.299,1.623c-0.056-0.021-0.119-0.022-0.179-0.033c-0.182-0.175-0.364-0.351-0.547-0.526
	c-0.076-0.587-0.202-1.173-0.219-1.761c-0.06-2.021-0.097-4.043-0.108-6.065c-0.004-0.7,0.093-1.4,0.144-2.1
	C0.3205,11.83571,0.4955,11.65371,0.6715,11.47071 M32.4915,8.54671c-0.125,0.028-0.277,0.059-0.427,0.096
	c-6.372,1.597-12.744,3.193-19.116,4.79c-2.542,0.637-5.085,1.271-7.624,1.922c-0.159,0.04-0.383,0.198-0.404,0.329
	c-0.068,0.415-0.053,0.843-0.072,1.315c9.357-0.62,18.589-1.231,27.76-1.838C32.5695,12.92271,32.5305,10.74671,32.4915,8.54671
	 M10.3635,22.23471c-0.378,1.643,0.692,3.258,2.329,3.603c1.481,0.312,3.141-0.617,3.415-1.946
	C14.2075,23.34371,12.3045,22.79471,10.3635,22.23471"/>
<path d="M49.2647,1.65181c0.159,0.701,0.075,0.906-0.561,1.267c-1.917,1.089-3.838,2.171-5.757,3.258
	c-0.377,0.213-0.732,0.194-1.036-0.115c-0.275-0.279-0.305-0.624-0.107-0.956c0.084-0.14,0.234-0.256,0.379-0.339
	c1.956-1.115,3.911-2.233,5.883-3.32c0.237-0.131,0.569-0.087,0.857-0.124C49.0367,1.43281,49.1507,1.54181,49.2647,1.65181"/>
<path d="M49.4676,30.83221c-0.359-0.065-0.756-0.05-1.069-0.207c-1.916-0.958-3.814-1.953-5.716-2.939
	c-0.561-0.29-0.748-0.736-0.503-1.179c0.254-0.459,0.696-0.548,1.267-0.251c1.916,0.995,3.831,1.99,5.745,2.988
	c0.642,0.334,0.736,0.536,0.605,1.246C49.6866,30.60421,49.5776,30.71821,49.4676,30.83221"/>
<path d="M42.2297,16.87201c-0.54-0.548-0.349-1.282,0.237-1.445c0.134-0.038,0.281-0.041,0.422-0.044
	c2.623-0.05,5.247-0.097,7.871-0.145c0.11-0.002,0.222-0.007,0.331,0.009c0.412,0.058,0.687,0.364,0.702,0.768
	c0.015,0.406-0.238,0.731-0.646,0.813c-0.122,0.025-0.251,0.024-0.377,0.027c-2.608,0.049-5.216,0.101-7.824,0.137
	C42.6637,16.99601,42.3797,16.89901,42.2297,16.87201"/>
</svg>
