<?xml version="1.0" encoding="utf-8"?>
<!-- Generator: Adobe Illustrator 19.2.1, SVG Export Plug-In . SVG Version: 6.00 Build 0)  -->
<svg version="1.1" id="Ebene_1" xmlns="http://www.w3.org/2000/svg" xmlns:xlink="http://www.w3.org/1999/xlink" x="0px" y="0px"
	 viewBox="0 0 595.3 595.3" style="enable-background:new 0 0 595.3 595.3;" xml:space="preserve">
<style type="text/css">
	.st0{fill:#FFFFFF;}
</style>
<path class="st0" d="M522.7,217.9l-6.6-6.6c0.7-1.4,1.1-2.9,1.1-4.5c0-5.5-4.4-9.9-9.9-9.9s-9.9,4.4-9.9,9.9c0,5.5,4.4,9.9,9.9,9.9
	c1.6,0,3.2-0.4,4.5-1.1l6.6,6.6c1,1,2.7,1,3.8,0l0.5-0.5C523.7,220.6,523.7,218.9,522.7,217.9z M507.3,213.7c-3.9,0-7-3.1-7-7
	c0-3.9,3.1-7,7-7s7,3.1,7,7C514.3,210.6,511.2,213.7,507.3,213.7z"/>
</svg>
